<svg width="400" height="400" viewBox="0 0 400 400" xmlns="http://www.w3.org/2000/svg">
  <defs>
    <!-- Ocean gradient - realistic blue shades -->
    <radialGradient id="oceanGradient" cx="35%" cy="25%">
      <stop offset="0%" style="stop-color:#87CEEB;stop-opacity:1" />
      <stop offset="30%" style="stop-color:#4682B4;stop-opacity:1" />
      <stop offset="70%" style="stop-color:#1E3A8A;stop-opacity:1" />
      <stop offset="100%" style="stop-color:#0F172A;stop-opacity:1" />
    </radialGradient>
    
    <!-- Land gradient - realistic earth tones -->
    <radialGradient id="landGradient" cx="35%" cy="25%">
      <stop offset="0%" style="stop-color:#D4AF37;stop-opacity:1" />
      <stop offset="30%" style="stop-color:#228B22;stop-opacity:1" />
      <stop offset="70%" style="stop-color:#8B4513;stop-opacity:1" />
      <stop offset="100%" style="stop-color:#2F4F2F;stop-opacity:1" />
    </radialGradient>
    
    <!-- Mountain/Desert gradient -->
    <radialGradient id="mountainGradient" cx="35%" cy="25%">
      <stop offset="0%" style="stop-color:#F4A460;stop-opacity:1" />
      <stop offset="50%" style="stop-color:#CD853F;stop-opacity:1" />
      <stop offset="100%" style="stop-color:#8B4513;stop-opacity:1" />
    </radialGradient>
    
    <!-- Ice/Snow gradient -->
    <radialGradient id="iceGradient" cx="35%" cy="25%">
      <stop offset="0%" style="stop-color:#FFFFFF;stop-opacity:1" />
      <stop offset="50%" style="stop-color:#F0F8FF;stop-opacity:1" />
      <stop offset="100%" style="stop-color:#B0E0E6;stop-opacity:1" />
    </radialGradient>
    
    <!-- Cloud pattern -->
    <pattern id="cloudPattern" x="0" y="0" width="40" height="40" patternUnits="userSpaceOnUse">
      <circle cx="20" cy="20" r="15" fill="#FFFFFF" opacity="0.3"/>
      <circle cx="10" cy="15" r="8" fill="#FFFFFF" opacity="0.2"/>
      <circle cx="30" cy="25" r="10" fill="#FFFFFF" opacity="0.25"/>
    </pattern>
    
    <!-- Atmosphere glow -->
    <radialGradient id="atmosphereGradient" cx="50%" cy="50%">
      <stop offset="85%" style="stop-color:#87CEEB;stop-opacity:0" />
      <stop offset="95%" style="stop-color:#87CEEB;stop-opacity:0.3" />
      <stop offset="100%" style="stop-color:#4169E1;stop-opacity:0.6" />
    </radialGradient>
    
    <!-- Shadow gradient -->
    <radialGradient id="shadowGradient" cx="50%" cy="50%">
      <stop offset="0%" style="stop-color:#000000;stop-opacity:0.4" />
      <stop offset="70%" style="stop-color:#000000;stop-opacity:0.1" />
      <stop offset="100%" style="stop-color:#000000;stop-opacity:0" />
    </radialGradient>
    
    <!-- Sun highlight -->
    <radialGradient id="sunHighlight" cx="30%" cy="20%">
      <stop offset="0%" style="stop-color:#FFFFFF;stop-opacity:0.8" />
      <stop offset="30%" style="stop-color:#FFFFFF;stop-opacity:0.4" />
      <stop offset="100%" style="stop-color:#FFFFFF;stop-opacity:0" />
    </radialGradient>
  </defs>
  
  <!-- Globe shadow -->
  <ellipse cx="210" cy="370" rx="90" ry="25" fill="url(#shadowGradient)" opacity="0.6" />
  
  <!-- Main Earth sphere -->
  <circle cx="200" cy="200" r="180" fill="url(#oceanGradient)" />
  
  <!-- Realistic continent shapes -->
  
  <!-- Africa -->
  <path d="M200,110 C220,100 240,105 255,120 C270,140 275,160 280,180 C285,200 280,220 275,240 C270,260 260,280 245,290 C230,295 215,290 205,280 C195,270 190,250 195,230 C200,210 195,190 200,170 C205,150 200,130 200,110 Z" fill="url(#landGradient)" opacity="0.95" />
  
  <!-- Europe -->
  <path d="M190,100 C200,95 210,98 220,105 C225,110 230,120 225,130 C220,140 210,145 200,140 C190,135 185,125 185,115 C185,105 190,100 190,100 Z" fill="url(#landGradient)" opacity="0.95" />
  
  <!-- Asia -->
  <path d="M280,90 C320,85 350,100 370,130 C375,150 370,170 360,185 C350,200 335,210 320,205 C305,200 295,185 300,170 C305,155 310,140 305,125 C300,110 290,100 280,90 Z" fill="url(#landGradient)" opacity="0.95" />
  
  <!-- North America -->
  <path d="M80,110 C100,95 120,100 135,115 C150,130 155,150 150,170 C145,190 135,205 120,210 C105,215 90,210 80,195 C70,180 65,160 70,140 C75,125 80,110 80,110 Z" fill="url(#landGradient)" opacity="0.95" />
  
  <!-- South America -->
  <path d="M140,220 C155,210 170,215 180,230 C185,245 185,260 180,275 C175,290 170,305 160,315 C150,325 135,320 125,305 C115,290 115,275 120,260 C125,245 130,230 140,220 Z" fill="url(#landGradient)" opacity="0.95" />
  
  <!-- Australia -->
  <path d="M300,270 C315,265 330,270 340,280 C345,290 340,300 330,305 C320,310 305,305 300,295 C295,285 295,275 300,270 Z" fill="url(#landGradient)" opacity="0.95" />
  
  <!-- Greenland and Arctic -->
  <path d="M150,60 C170,55 185,60 190,75 C185,85 175,90 165,85 C155,80 150,70 150,60 Z" fill="url(#iceGradient)" opacity="0.9" />
  
  <!-- Antarctica -->
  <path d="M120,320 C200,315 280,320 320,325 C300,340 250,345 200,345 C150,345 100,340 120,320 Z" fill="url(#iceGradient)" opacity="0.9" />
  
  <!-- Mountain ranges (Himalayas, Andes, etc.) -->
  <path d="M280,140 C290,135 300,140 295,150 C290,155 285,150 280,140 Z" fill="url(#mountainGradient)" opacity="0.8" />
  <path d="M160,250 C165,245 170,250 165,255 C160,260 155,255 160,250 Z" fill="url(#mountainGradient)" opacity="0.8" />
  
  <!-- Cloud cover -->
  <g opacity="0.3">
    <ellipse cx="120" cy="150" rx="40" ry="20" fill="url(#cloudPattern)" />
    <ellipse cx="280" cy="180" rx="35" ry="18" fill="url(#cloudPattern)" />
    <ellipse cx="180" cy="250" rx="30" ry="15" fill="url(#cloudPattern)" />
    <ellipse cx="320" cy="120" rx="25" ry="12" fill="url(#cloudPattern)" />
  </g>
  
  <!-- Latitude and longitude grid -->
  <g stroke="#FFFFFF" stroke-width="0.5" opacity="0.2" fill="none">
    <!-- Longitude lines -->
    <ellipse cx="200" cy="200" rx="180" ry="45" />
    <ellipse cx="200" cy="200" rx="180" ry="90" />
    <ellipse cx="200" cy="200" rx="180" ry="135" />
    <line x1="20" y1="200" x2="380" y2="200" />
    
    <!-- Latitude lines -->
    <ellipse cx="200" cy="200" rx="30" ry="180" />
    <ellipse cx="200" cy="200" rx="60" ry="180" />
    <ellipse cx="200" cy="200" rx="90" ry="180" />
    <ellipse cx="200" cy="200" rx="120" ry="180" />
    <ellipse cx="200" cy="200" rx="150" ry="180" />
  </g>
  
  <!-- Sun highlight on the globe -->
  <ellipse cx="140" cy="130" rx="80" ry="60" fill="url(#sunHighlight)" opacity="0.7" transform="rotate(-15 140 130)" />
  
  <!-- Atmospheric glow -->
  <circle cx="200" cy="200" r="190" fill="url(#atmosphereGradient)" />
  
  <!-- Orbiting satellite -->
  <g opacity="0.8">
    <circle cx="50" cy="100" r="2" fill="#FFD700">
      <animateTransform attributeName="transform" type="rotate" values="0 200 200;360 200 200" dur="8s" repeatCount="indefinite" />
    </circle>
  </g>
  
  <!-- International Space Station -->
  <g opacity="0.9">
    <rect x="348" y="148" width="4" height="2" fill="#C0C0C0">
      <animateTransform attributeName="transform" type="rotate" values="0 200 200;360 200 200" dur="12s" repeatCount="indefinite" />
    </rect>
  </g>
  
  <!-- Day/night terminator line -->
  <path d="M200,20 Q280,100 320,200 Q280,300 200,380" stroke="#000000" stroke-width="2" opacity="0.3" fill="none" />
  
  <!-- Night side darkening -->
  <path d="M200,20 Q280,100 320,200 Q280,300 200,380 Q120,300 80,200 Q120,100 200,20 Z" fill="url(#shadowGradient)" opacity="0.4" />
  
  <!-- City lights on night side -->
  <g opacity="0.6">
    <circle cx="100" cy="180" r="1" fill="#FFFF00" opacity="0.8" />
    <circle cx="110" cy="190" r="0.5" fill="#FFFF00" opacity="0.6" />
    <circle cx="95" cy="200" r="0.8" fill="#FFFF00" opacity="0.7" />
    <circle cx="120" cy="170" r="0.6" fill="#FFFF00" opacity="0.5" />
    <circle cx="85" cy="220" r="0.7" fill="#FFFF00" opacity="0.8" />
  </g>
  
  <!-- Subtle space background -->
  <g opacity="0.4">
    <circle cx="50" cy="50" r="1" fill="#FFFFFF" />
    <circle cx="350" cy="80" r="0.8" fill="#FFFFFF" />
    <circle cx="70" cy="350" r="1.2" fill="#FFFFFF" />
    <circle cx="330" cy="320" r="0.6" fill="#FFFFFF" />
    <circle cx="380" cy="150" r="0.9" fill="#FFFFFF" />
  </g>
</svg>
